<svg width="400" height="130" viewBox="0 0 400 130" xmlns="http://www.w3.org/2000/svg">
  <rect width="400" height="130" rx="6" fill="#161b22"/>
  <rect width="399" height="129" x="0.5" y="0.5" rx="6" fill="none" stroke="#30363d" stroke-width="1"/>
  <svg x="16" y="14" width="16" height="16" viewBox="0 0 16 16" fill="#8b949e">
    <path d="M2 2.5A2.5 2.5 0 0 1 4.5 0h8.75a.75.75 0 0 1 .75.75v12.5a.75.75 0 0 1-.75.75h-2.5a.75.75 0 0 1 0-1.5h1.75v-2h-8a1 1 0 0 0-.714 1.7.75.75 0 1 1-1.072 1.05A2.495 2.495 0 0 1 2 11.5Zm10.5-1h-8a1 1 0 0 0-1 1v6.708A2.486 2.486 0 0 1 4.5 9h8Z"/>
  </svg>
  <text x="38" y="27" font-family="Segoe UI,sans-serif" font-size="12" fill="#8b949e">zurefx /</text>
  <text x="84" y="27" font-family="Segoe UI,sans-serif" font-size="13" font-weight="600" fill="#58a6ff">zurefx.github.io</text>
  <rect x="306" y="11" width="58" height="20" rx="10" fill="#21262d"/>
  <rect x="306" y="11" width="58" height="20" rx="10" fill="none" stroke="#30363d" stroke-width="1"/>
  <text x="335" y="25" text-anchor="middle" font-family="Segoe UI,sans-serif" font-size="11" fill="#8b949e">Public</text>
  <text x="16" y="58" font-family="Segoe UI,sans-serif" font-size="12" fill="#8b949e">Personal site &amp; portfolio — dark · minimal · mine.</text>
  <circle cx="24" cy="105" r="6" fill="#e34c26"/>
  <text x="36" y="110" font-family="Segoe UI,sans-serif" font-size="12" fill="#8b949e">HTML</text>
  <svg x="86" y="97" width="14" height="14" viewBox="0 0 16 16" fill="#8b949e">
    <path d="M8 .25a.75.75 0 0 1 .673.418l1.882 3.815 4.21.612a.75.75 0 0 1 .416 1.279l-3.046 2.97.719 4.192a.751.751 0 0 1-1.088.791L8 12.347l-3.766 1.98a.75.75 0 0 1-1.088-.79l.72-4.194L.818 6.374a.75.75 0 0 1 .416-1.28l4.21-.611L7.327.668A.75.75 0 0 1 8 .25Z"/>
  </svg>
</svg>
